<svg width="98" height="32" viewBox="0 0 98 32" fill="none" xmlns="http://www.w3.org/2000/svg">
<g clip-path="url(#clip0)">
<path d="M12.8282 18.6304L15.3342 21.0978C14.5394 22.0109 13.5458 22.7174 12.3425 23.2283C11.1391 23.7391 9.89163 24 8.59998 24C6.11603 24 4.06263 23.2283 2.43979 21.6848C0.816943 20.1413 0 18.1087 0 15.5978C0 13.2609 0.739664 11.2717 2.21899 9.63043C3.69832 7.98913 5.61924 7.16304 7.99279 7.16304C10.2228 7.16304 12.0775 7.96739 13.5458 9.57609C15.0141 11.1848 15.7427 13.1413 15.7427 15.4239C15.7427 15.8913 15.7096 16.3043 15.6433 16.6522H4.26135C4.37175 17.7826 4.84646 18.7065 5.68548 19.4239C6.5245 20.1304 7.52912 20.4891 8.69934 20.4891C10.278 20.5 11.658 19.8804 12.8282 18.6304ZM4.47111 13.5H11.2385C11.1722 12.75 10.83 12.087 10.2007 11.5217C9.58252 10.9565 8.84285 10.6739 7.98175 10.6739C7.09857 10.6739 6.32579 10.9565 5.64132 11.5217C4.97893 12.087 4.5815 12.75 4.47111 13.5Z" fill="#01065B"/>
<path d="M22.6205 0V23.663H18.2156V0H22.6205Z" fill="#01065B"/>
<path d="M60.7518 23.663H56.5236V22.3587C55.2098 23.4457 53.6863 23.9891 51.9531 23.9891C49.425 23.9891 47.3606 23.0761 45.7598 21.2609C44.3577 19.663 43.6622 17.7717 43.6622 15.5978C43.6622 13.2174 44.4461 11.2174 46.0137 9.59783C47.5814 7.97826 49.4802 7.16304 51.7213 7.16304C53.5318 7.16304 55.0774 7.66304 56.358 8.66304V0H60.7628V23.663H60.7518ZM56.3469 18V13.163C55.3313 11.8261 53.9734 11.163 52.2843 11.163C51.0478 11.163 50.0322 11.5978 49.2373 12.4783C48.4425 13.3587 48.0561 14.3913 48.0561 15.5978C48.0561 16.8696 48.4645 17.913 49.2925 18.75C50.1205 19.587 51.1472 20 52.3947 20C54.0838 20 55.4086 19.337 56.3469 18Z" fill="#01065B"/>
<path d="M80.1487 7.5V22.7717C80.1487 25.3913 79.6519 27.3913 78.6583 28.7717C77.9187 29.7935 76.903 30.587 75.6334 31.1522C74.3528 31.7174 72.9397 32 71.3831 32C69.8265 32 68.3251 31.6848 66.901 31.0652C65.4658 30.4457 64.3287 29.6413 63.5007 28.663L66.2717 25.8261C67.74 27.3804 69.4401 28.163 71.3831 28.163C72.8735 28.163 73.9885 27.7283 74.7392 26.8587C75.4126 26.1304 75.7549 24.8587 75.7549 23.0543V22.5217C74.4632 23.5 73.006 23.9891 71.35 23.9891C70.1577 23.9891 68.9985 23.7391 67.8946 23.2609C66.7906 22.7717 65.8632 22.1087 65.1236 21.2609C63.7436 19.6848 63.0591 17.7935 63.0591 15.5978C63.0591 13.2174 63.843 11.2174 65.4106 9.59783C66.9783 7.97826 68.8771 7.16304 71.1182 7.16304C72.9728 7.16304 74.5736 7.70652 75.9315 8.79348L80.1487 7.5ZM75.7438 18V13.163C74.7282 11.8261 73.3703 11.163 71.6812 11.163C70.4447 11.163 69.4291 11.5978 68.6342 12.4783C67.8394 13.3587 67.453 14.3913 67.453 15.5978C67.453 16.8696 67.8614 17.913 68.6894 18.75C69.5174 19.587 70.5441 20 71.7916 20C73.4696 20 74.7944 19.337 75.7438 18Z" fill="#01065B"/>
<path d="M95.0855 18.6304L97.5915 21.0978C96.7967 22.0109 95.8031 22.7174 94.5997 23.2283C93.3964 23.7391 92.1489 24 90.8573 24C88.3733 24 86.3199 23.2283 84.6971 21.6848C83.0742 20.1413 82.2573 18.1087 82.2573 15.5978C82.2573 13.2609 82.9969 11.2717 84.4763 9.63043C85.9556 7.98913 87.8765 7.16304 90.2501 7.16304C92.4801 7.16304 94.3348 7.96739 95.8031 9.57609C97.2714 11.1848 98 13.1413 98 15.4239C98 15.8913 97.9669 16.3043 97.9006 16.6522H86.5297C86.6401 17.7826 87.1148 18.7065 87.9538 19.4239C88.7928 20.1304 89.7974 20.4891 90.9677 20.4891C92.5353 20.5 93.9153 19.8804 95.0855 18.6304ZM86.7284 13.5H93.4958C93.4295 12.75 93.0873 12.087 92.458 11.5217C91.8398 10.9565 91.1001 10.6739 90.239 10.6739C89.3558 10.6739 88.5831 10.9565 87.8986 11.5217C87.2362 12.087 86.8388 12.75 86.7284 13.5Z" fill="#01065B"/>
<path d="M39.5113 9.61957C37.8443 7.98913 35.7688 7.17391 33.2849 7.17391C30.8009 7.17391 28.7255 7.98913 27.0585 9.61957C25.3915 11.25 24.5524 13.25 24.5524 15.5978C24.5524 17.9565 25.3915 19.9457 27.0585 21.5652C27.5 21.9891 27.9637 22.3587 28.4605 22.6739L28.1735 28.4239L32.1478 23.9239C32.5231 23.9674 32.8985 23.9891 33.2959 23.9891C35.7799 23.9891 37.8553 23.1739 39.5223 21.5543C41.1894 19.9348 42.0284 17.9457 42.0284 15.587C42.0173 13.25 41.1783 11.25 39.5113 9.61957ZM36.3981 18.7391C35.5812 19.587 34.5434 20.0109 33.2849 20.0109C32.0153 20.0109 30.9776 19.587 30.1717 18.7391C29.3547 17.8913 28.9573 16.8478 28.9573 15.6087C28.9573 14.3696 29.3658 13.3152 30.1717 12.4565C30.9886 11.5978 32.0264 11.1739 33.2849 11.1739C34.5434 11.1739 35.5922 11.5978 36.3981 12.4565C37.215 13.3152 37.6125 14.3587 37.6125 15.6087C37.6125 16.8478 37.215 17.8913 36.3981 18.7391Z" fill="#6461FF"/>
</g>
<defs>
<clipPath id="clip0">
<rect width="98" height="32" fill="white"/>
</clipPath>
</defs>
</svg>
